<?xml version="1.0" standalone="no"?><!DOCTYPE svg PUBLIC "-//W3C//DTD SVG 1.1//EN" "http://www.w3.org/Graphics/SVG/1.1/DTD/svg11.dtd"><svg t="1716293865139" class="icon" viewBox="0 0 1024 1024" version="1.1" xmlns="http://www.w3.org/2000/svg" p-id="5075" xmlns:xlink="http://www.w3.org/1999/xlink" width="200" height="200"><path d="M550.4 896h-17.066667C332.8 896 170.666667 733.866667 170.666667 533.333333S332.8 170.666667 533.333333 170.666667h21.333334c192 12.8 341.333333 170.666667 341.333333 362.666666 0 174.933333-123.733333 320-290.133333 354.133334-17.066667 4.266667-38.4 8.533333-55.466667 8.533333z m-34.133333-42.666667v-145.066666l-59.733334-81.066667 123.733334-123.733333 59.733333 59.733333h115.2l76.8 76.8v8.533333c12.8-38.4 21.333333-76.8 21.333333-119.466666 0-166.4-128-302.933333-290.133333-320L473.6 298.666667l59.733333 59.733333V469.333333l-98.133333 98.133334-187.733333-179.2c-21.333333 42.666667-34.133333 93.866667-34.133334 145.066666 0 170.666667 132.266667 311.466667 302.933334 320zM366.933333 260.266667c-38.4 25.6-68.266667 51.2-93.866666 89.6l162.133333 162.133333 55.466667-55.466667V379.733333L413.866667 302.933333l12.8-12.8 72.533333-72.533333c-46.933333 4.266667-89.6 17.066667-132.266667 42.666667z m192 430.933333V853.333333c42.666667-4.266667 89.6-17.066667 136.533334-42.666666 38.4-21.333333 68.266667-51.2 93.866666-85.333334v-68.266666l-51.2-51.2h-115.2l-42.666666-42.666667-64 64 42.666666 64z" fill="#2c2c2c" p-id="5076"></path></svg>