<?xml version="1.0" standalone="no"?><!DOCTYPE svg PUBLIC "-//W3C//DTD SVG 1.1//EN" "http://www.w3.org/Graphics/SVG/1.1/DTD/svg11.dtd"><svg t="1716212959441" class="icon" viewBox="0 0 1228 1024" version="1.1" xmlns="http://www.w3.org/2000/svg" p-id="5534" xmlns:xlink="http://www.w3.org/1999/xlink" width="239.84375" height="200"><path d="M208.6912 1014.8864c-51.0976 0-102.673067-21.0944-142.097067-58.129067C25.3952 918.016 1.706667 866.5088 1.706667 814.2848V202.0352c0-53.179733 23.6544-103.3216 66.048-140.834133C106.837333 26.624 158.037333 6.826667 208.6912 6.826667h840.669867c52.087467 0 99.1232 21.265067 131.720533 59.767466 29.969067 35.4304 46.2848 83.5584 46.2848 135.441067v612.2496c0 51.746133-15.940267 100.078933-45.329067 136.942933a166.775467 166.775467 0 0 1-132.676266 63.658667H208.657067z m0-903.168c-51.712 0-102.468267 42.871467-102.468267 90.3168v612.2496c0 48.298667 50.210133 95.675733 102.468267 95.675733h840.669867c43.690667 0 73.489067-40.7552 73.489066-95.675733V202.0352c0-53.282133-27.5456-90.282667-73.489066-90.282667H208.657067z m-9.898667 415.3344c0-83.182933 67.242667-150.869333 150.016-150.869333 82.7392 0 149.981867 67.6864 149.981867 150.869333s-67.242667 150.869333-149.981867 150.869333c-82.773333 0-150.016-67.6864-150.016-150.869333z m103.8336 0c0 25.736533 20.7872 46.660267 46.1824 46.660267s46.148267-20.923733 46.148267-46.660267-20.753067-46.660267-46.148267-46.660267c-25.3952 0-46.1824 20.923733-46.1824 46.660267z m335.325867 74.171733h316.5184a51.780267 51.780267 0 1 1 0 103.560534H637.952a51.780267 51.780267 0 1 1 0-103.560534z m0-307.2h316.5184a51.780267 51.780267 0 1 1 0 103.560534H637.952a51.780267 51.780267 0 1 1 0-103.560534z" fill="#2c2c2c" p-id="5535"></path></svg>